<svg width="24" height="24" viewBox="0 0 24 24" fill="none" xmlns="http://www.w3.org/2000/svg">
    <path d="M5.99977 5.00172V7.00172M9.99977 5.00172V7.00172M5.99977 17.0017V19.0017M9.99977 17.0017V19.0017M19.3198 10.0017H4.68977C3.20977 10.0017 2.00977 8.79172 2.00977 7.32172V4.69172C2.00977 3.21172 3.21977 2.01172 4.68977 2.01172H19.3198C20.7998 2.01172 21.9998 3.22172 21.9998 4.69172V7.32172C21.9998 8.79172 20.7898 10.0017 19.3198 10.0017ZM19.3198 22.0017H4.68977C3.20977 22.0017 2.00977 20.7917 2.00977 19.3217V16.6917C2.00977 15.2117 3.21977 14.0117 4.68977 14.0117H19.3198C20.7998 14.0117 21.9998 15.2217 21.9998 16.6917V19.3217C21.9998 20.7917 20.7898 22.0017 19.3198 22.0017Z" stroke="#53B1FD" stroke-width="1.5" stroke-linecap="round" stroke-linejoin="round"/>
</svg>
