<svg width="24" height="24" viewBox="0 0 24 24" fill="none" xmlns="http://www.w3.org/2000/svg">
    <path d="M18.0523 10.2866C17.6391 10.2577 17.2807 10.5692 17.2518 10.9824C17.2229 11.3956 17.5345 11.754 17.9477 11.7829L18.0523 10.2866ZM18.8925 11.8838C19.3025 11.9432 19.6829 11.659 19.7423 11.249C19.8016 10.8391 19.5174 10.4587 19.1075 10.3993L18.8925 11.8838ZM5.10749 12.1163C4.69755 12.0569 4.3171 12.3411 4.25774 12.7511C4.19838 13.161 4.48258 13.5414 4.89251 13.6008L5.10749 12.1163ZM5.94767 13.7135C6.36088 13.7424 6.71927 13.4309 6.74817 13.0177C6.77707 12.6045 6.46553 12.2461 6.05233 12.2172L5.94767 13.7135ZM12 19.5L11.6826 18.8205L11.6826 18.8205L12 19.5ZM4 20.1726L4.16745 19.4415H4.16745L4 20.1726ZM20 18.8274L19.8326 19.5585L20 18.8274ZM20 3.8274L20.1674 3.09633L20.1674 3.09633L20 3.8274ZM4 5.1726L4.16745 4.44153L4 5.1726ZM13.75 12.0001C13.75 12.9666 12.9665 13.7501 12 13.7501V15.2501C13.7949 15.2501 15.25 13.795 15.25 12.0001H13.75ZM12 13.7501C11.0335 13.7501 10.25 12.9666 10.25 12.0001H8.75C8.75 13.795 10.2051 15.2501 12 15.2501V13.7501ZM10.25 12.0001C10.25 11.0336 11.0335 10.2501 12 10.2501V8.75008C10.2051 8.75008 8.75 10.2052 8.75 12.0001H10.25ZM12 10.2501C12.9665 10.2501 13.75 11.0336 13.75 12.0001H15.25C15.25 10.2052 13.7949 8.75008 12 8.75008V10.2501ZM17.9477 11.7829C18.2705 11.8055 18.586 11.8394 18.8925 11.8838L19.1075 10.3993C18.7638 10.3495 18.4116 10.3117 18.0523 10.2866L17.9477 11.7829ZM4.89251 13.6008C5.23618 13.6506 5.58844 13.6884 5.94767 13.7135L6.05233 12.2172C5.72951 12.1946 5.41405 12.1607 5.10749 12.1163L4.89251 13.6008ZM7 21.25C9.00849 21.25 10.8702 20.8555 12.3174 20.1795L11.6826 18.8205C10.4648 19.3893 8.82565 19.75 7 19.75V21.25ZM12.3174 20.1795C13.5352 19.6107 15.1744 19.25 17 19.25V17.75C14.9915 17.75 13.1298 18.1445 11.6826 18.8205L12.3174 20.1795ZM7 6.25C9.00849 6.25 10.8702 5.85546 12.3174 5.17954L11.6826 3.82046C10.4648 4.38927 8.82565 4.75 7 4.75V6.25ZM12.3174 5.17954C13.5352 4.61073 15.1744 4.25 17 4.25V2.75C14.9915 2.75 13.1298 3.14454 11.6826 3.82046L12.3174 5.17954ZM21.25 6.61397V17.386H22.75V6.61397H21.25ZM1.25 6.61397V17.386H2.75V6.61397H1.25ZM3.83255 20.9037C4.80949 21.1274 5.88016 21.25 7 21.25V19.75C5.988 19.75 5.02989 19.6391 4.16745 19.4415L3.83255 20.9037ZM17 19.25C18.012 19.25 18.9701 19.3609 19.8326 19.5585L20.1674 18.0963C19.1905 17.8726 18.1198 17.75 17 17.75V19.25ZM17 4.25C18.012 4.25 18.9701 4.36093 19.8326 4.55847L20.1674 3.09633C19.1905 2.87257 18.1198 2.75 17 2.75V4.25ZM3.83255 5.90367C4.80949 6.12743 5.88016 6.25 7 6.25V4.75C5.988 4.75 5.02989 4.63907 4.16745 4.44153L3.83255 5.90367ZM21.25 17.386C21.25 17.7885 20.7609 18.2323 20.1674 18.0963L19.8326 19.5585C21.159 19.8623 22.75 18.9532 22.75 17.386H21.25ZM2.75 6.61397C2.75 6.2115 3.23906 5.76774 3.83255 5.90367L4.16745 4.44153C2.841 4.13772 1.25 5.04678 1.25 6.61397H2.75ZM4.16745 19.4415C3.54269 19.2984 3.23433 19.0673 3.05824 18.8074C2.86737 18.5257 2.75 18.0908 2.75 17.386H1.25C1.25 18.2216 1.38242 19.0082 1.81644 19.6488C2.26524 20.3111 2.95689 20.7031 3.83255 20.9037L4.16745 19.4415ZM22.75 6.61397C22.75 5.81712 22.6428 5.03453 22.2218 4.38745C21.7825 3.71217 21.0845 3.30637 20.1674 3.09633L19.8326 4.55847C20.4972 4.7107 20.7992 4.95139 20.9645 5.20542C21.1481 5.48766 21.25 5.91721 21.25 6.61397H22.75Z" fill="#53B1FD"/>
</svg>
