<svg width="20" height="20" viewBox="0 0 20 20" fill="none" xmlns="http://www.w3.org/2000/svg">
<path d="M9.74605 12.4999C9.74605 12.707 9.91394 12.8749 10.121 12.8749C10.3282 12.8749 10.496 12.707 10.496 12.4999H9.74605ZM9.62105 9.1249C9.41394 9.1249 9.24605 9.2928 9.24605 9.4999C9.24605 9.70701 9.41394 9.8749 9.62105 9.8749V9.1249ZM10.0478 9.57313L10.313 9.30796L10.0478 9.57313ZM9.99595 7.6249C9.78884 7.6249 9.62095 7.7928 9.62095 7.9999C9.62095 8.20701 9.78884 8.3749 9.99595 8.3749V7.6249ZM10.0004 8.3749C10.2075 8.3749 10.3754 8.20701 10.3754 7.9999C10.3754 7.7928 10.2075 7.6249 10.0004 7.6249V8.3749ZM10 14.375C8.86981 14.375 8.0599 14.3742 7.44395 14.2914C6.83878 14.21 6.47731 14.0557 6.21079 13.7892L5.68046 14.3195C6.10956 14.7486 6.65568 14.9422 7.34401 15.0347C8.02155 15.1258 8.89102 15.125 10 15.125V14.375ZM4.875 10C4.875 11.109 4.8742 11.9784 4.9653 12.656C5.05784 13.3443 5.25136 13.8904 5.68046 14.3195L6.21079 13.7892C5.94426 13.5227 5.78997 13.1612 5.70861 12.5561C5.6258 11.9401 5.625 11.1302 5.625 10H4.875ZM14.375 10C14.375 11.1302 14.3742 11.9401 14.2914 12.5561C14.21 13.1612 14.0557 13.5227 13.7892 13.7892L14.3195 14.3195C14.7486 13.8904 14.9422 13.3443 15.0347 12.656C15.1258 11.9784 15.125 11.109 15.125 10H14.375ZM10 15.125C11.109 15.125 11.9784 15.1258 12.656 15.0347C13.3443 14.9422 13.8904 14.7486 14.3195 14.3195L13.7892 13.7892C13.5227 14.0557 13.1612 14.21 12.5561 14.2914C11.9401 14.3742 11.1302 14.375 10 14.375V15.125ZM10 5.625C11.1302 5.625 11.9401 5.6258 12.5561 5.70861C13.1612 5.78997 13.5227 5.94426 13.7892 6.21079L14.3195 5.68046C13.8904 5.25136 13.3443 5.05784 12.656 4.9653C11.9784 4.8742 11.109 4.875 10 4.875V5.625ZM15.125 10C15.125 8.89102 15.1258 8.02155 15.0347 7.34401C14.9422 6.65568 14.7486 6.10956 14.3195 5.68046L13.7892 6.21079C14.0557 6.47731 14.21 6.83878 14.2914 7.44395C14.3742 8.0599 14.375 8.86981 14.375 10H15.125ZM10 4.875C8.89102 4.875 8.02155 4.8742 7.34401 4.9653C6.65568 5.05784 6.10956 5.25136 5.68046 5.68046L6.21079 6.21079C6.47731 5.94426 6.83878 5.78997 7.44395 5.70861C8.0599 5.6258 8.86981 5.625 10 5.625V4.875ZM5.625 10C5.625 8.86981 5.6258 8.0599 5.70861 7.44395C5.78997 6.83878 5.94426 6.47731 6.21079 6.21079L5.68046 5.68046C5.25136 6.10956 5.05784 6.65568 4.9653 7.34401C4.8742 8.02155 4.875 8.89102 4.875 10H5.625ZM9.74605 9.9999V12.4999H10.496V9.9999H9.74605ZM9.62105 9.8749C9.68136 9.8749 9.72777 9.87493 9.76741 9.87593C9.80723 9.87693 9.83091 9.87876 9.8454 9.88071C9.85964 9.88263 9.85485 9.88341 9.84072 9.87759C9.82358 9.87054 9.80208 9.85772 9.78266 9.83829L10.313 9.30796C10.1951 9.19006 10.055 9.15214 9.94533 9.1374C9.84646 9.12411 9.72829 9.1249 9.62105 9.1249V9.8749ZM10.496 9.9999C10.496 9.89265 10.4968 9.77449 10.4835 9.67562C10.4688 9.56596 10.4309 9.42586 10.313 9.30796L9.78266 9.83829C9.76323 9.81887 9.75041 9.79736 9.74336 9.78023C9.73754 9.76609 9.73832 9.76131 9.74024 9.77555C9.74218 9.79003 9.74402 9.81371 9.74502 9.85354C9.74602 9.89317 9.74605 9.93958 9.74605 9.9999H10.496ZM9.99595 8.3749H10.0004V7.6249H9.99595V8.3749Z" fill="#98A2B3"/>
</svg>
