<svg xmlns="http://www.w3.org/2000/svg" width="24" height="24" viewBox="0 0 24 24" fill="none">
    <path d="M15.581 12.0011C15.581 13.9811 13.981 15.5811 12.001 15.5811C10.021 15.5811 8.42096 13.9811 8.42096 12.0011C8.42096 10.0211 10.021 8.4211 12.001 8.4211C13.981 8.4211 15.581 10.0211 15.581 12.0011Z" stroke="#6F7682" stroke-width="1.5" stroke-linecap="round" stroke-linejoin="round"/>
    <path d="M12.0049 19.9961C15.4176 19.9961 18.5983 17.9852 20.8122 14.5049C21.6823 13.1417 21.6823 10.8505 20.8122 9.48733C18.5983 6.00697 15.4176 3.99609 12.0049 3.99609C8.59213 3.99609 5.41142 6.00697 3.1975 9.48733C2.3274 10.8505 2.3274 13.1417 3.1975 14.5049C5.41142 17.9852 8.59213 19.9961 12.0049 19.9961Z" stroke="#6F7682" stroke-width="1.5" stroke-linecap="round" stroke-linejoin="round"/>
</svg>