<svg width="23" height="23" viewBox="0 0 23 23" xmlns="http://www.w3.org/2000/svg">
    <path d="M6.91536 7.07583C6.50115 7.07583 6.16536 7.41162 6.16536 7.82583C6.16536 8.24005 6.50115 8.57583 6.91536 8.57583V7.07583ZM19.8599 19.8595L20.3904 20.3897V20.3897L19.8599 19.8595ZM19.8599 8.63168L19.3294 9.16188L19.8599 8.63168ZM3.40597 5.23185L3.93643 5.76206L3.93643 5.76206L3.40597 5.23185ZM7.83203 4.16536V3.41529L7.82118 3.41544L7.83203 4.16536ZM9.66536 4.91536C10.0796 4.91536 10.4154 4.57958 10.4154 4.16536C10.4154 3.75115 10.0796 3.41536 9.66536 3.41536V4.91536ZM14.4154 13.332C14.4154 14.5056 15.3668 15.457 16.5404 15.457V13.957C16.1952 13.957 15.9154 13.6772 15.9154 13.332H14.4154ZM16.5404 15.457C17.714 15.457 18.6654 14.5056 18.6654 13.332H17.1654C17.1654 13.6772 16.8855 13.957 16.5404 13.957V15.457ZM18.6654 13.332C18.6654 12.1584 17.714 11.207 16.5404 11.207V12.707C16.8855 12.707 17.1654 12.9869 17.1654 13.332H18.6654ZM16.5404 11.207C15.3668 11.207 14.4154 12.1584 14.4154 13.332H15.9154C15.9154 12.9869 16.1952 12.707 16.5404 12.707V11.207ZM18.6654 6.91536C18.6654 3.96985 16.2775 1.58203 13.332 1.58203V3.08203C15.4491 3.08203 17.1654 4.79827 17.1654 6.91536H18.6654ZM13.332 1.58203C10.3865 1.58203 7.9987 3.96985 7.9987 6.91536H9.4987C9.4987 4.79827 11.2149 3.08203 13.332 3.08203V1.58203ZM18.5587 7.98123C18.6287 7.63622 18.6654 7.27968 18.6654 6.91536H17.1654C17.1654 7.1789 17.1389 7.43548 17.0887 7.68283L18.5587 7.98123ZM7.9987 6.91536C7.9987 7.27968 8.03534 7.63622 8.10537 7.98123L9.57539 7.68283C9.52518 7.43548 9.4987 7.1789 9.4987 6.91536H7.9987ZM19.9154 13.3285V15.1627H21.4154V13.3285H19.9154ZM15.1654 19.9154H9.66536V21.4154H15.1654V19.9154ZM3.08203 13.3285V11.4943H1.58203V13.3285H3.08203ZM6.91536 8.57583H15.1654V7.07583H6.91536V8.57583ZM9.66536 19.9154C7.91567 19.9154 6.67888 19.9138 5.74202 19.7878C4.82677 19.6646 4.31084 19.4353 3.93643 19.0607L2.87552 20.1211C3.57505 20.821 4.46033 21.1289 5.54205 21.2744C6.60216 21.417 7.95809 21.4154 9.66536 21.4154V19.9154ZM1.58203 13.3285C1.58203 15.0366 1.58044 16.3931 1.72296 17.4537C1.86837 18.5357 2.17603 19.4213 2.87552 20.1211L3.93643 19.0607C3.56197 18.6861 3.33267 18.1697 3.20959 17.2539C3.08362 16.3165 3.08203 15.079 3.08203 13.3285H1.58203ZM19.9154 15.1627C19.9154 16.4809 19.9138 17.3941 19.8214 18.0818C19.7318 18.7479 19.5697 19.089 19.3294 19.3293L20.3904 20.3897C20.9556 19.8242 21.1961 19.1139 21.308 18.2816C21.417 17.4708 21.4154 16.4385 21.4154 15.1627H19.9154ZM15.1654 21.4154C16.4405 21.4154 17.4724 21.417 18.2828 21.3079C19.1149 21.196 19.8251 20.9553 20.3904 20.3897L19.3294 19.3293C19.0893 19.5696 18.7485 19.7318 18.0829 19.8213C17.3956 19.9138 16.4829 19.9154 15.1654 19.9154V21.4154ZM21.4154 13.3285C21.4154 12.0527 21.417 11.0204 21.308 10.2096C21.1961 9.37732 20.9556 8.66699 20.3904 8.10148L19.3294 9.16188C19.5697 9.40221 19.7318 9.7433 19.8214 10.4094C19.9138 11.0971 19.9154 12.0103 19.9154 13.3285H21.4154ZM15.1654 8.57583C16.4829 8.57583 17.3956 8.57743 18.0829 8.66987C18.7485 8.7594 19.0893 8.9216 19.3294 9.16188L20.3904 8.10148C19.8251 7.53591 19.1149 7.29518 18.2828 7.18326C17.4724 7.07424 16.4405 7.07583 15.1654 7.07583V8.57583ZM3.08203 11.4943C3.08203 9.74376 3.08362 8.50629 3.20959 7.56888C3.33267 6.65302 3.56197 6.1367 3.93643 5.76206L2.87551 4.70165C2.17603 5.40147 1.86837 6.28704 1.72296 7.36911C1.58044 8.42964 1.58203 9.78614 1.58203 11.4943H3.08203ZM7.82118 3.41544C5.60031 3.44759 3.98716 3.58947 2.87551 4.70165L3.93643 5.76206C4.55377 5.14442 5.51788 4.94894 7.84289 4.91529L7.82118 3.41544ZM7.83203 4.91536H9.66536V3.41536H7.83203V4.91536Z"/>
</svg>
