<svg width="12" height="12" viewBox="0 0 12 12" xmlns="http://www.w3.org/2000/svg">
    <path d="M5.74605 8.4999C5.74605 8.70701 5.91394 8.8749 6.12105 8.8749C6.32815 8.8749 6.49605 8.70701 6.49605 8.4999H5.74605ZM5.62105 5.1249C5.41394 5.1249 5.24605 5.2928 5.24605 5.4999C5.24605 5.70701 5.41394 5.8749 5.62105 5.8749V5.1249ZM6.04782 5.57313L6.31299 5.30796L6.04782 5.57313ZM5.99595 3.6249C5.78884 3.6249 5.62095 3.7928 5.62095 3.9999C5.62095 4.20701 5.78884 4.3749 5.99595 4.3749V3.6249ZM6.00044 4.3749C6.20755 4.3749 6.37544 4.20701 6.37544 3.9999C6.37544 3.7928 6.20755 3.6249 6.00044 3.6249V4.3749ZM6 10.375C4.86981 10.375 4.0599 10.3742 3.44395 10.2914C2.83878 10.21 2.47731 10.0557 2.21079 9.78921L1.68046 10.3195C2.10956 10.7486 2.65568 10.9422 3.34401 11.0347C4.02155 11.1258 4.89102 11.125 6 11.125V10.375ZM0.875 6C0.875 7.10898 0.874204 7.97845 0.965297 8.65599C1.05784 9.34432 1.25136 9.89045 1.68046 10.3195L2.21079 9.78921C1.94426 9.52269 1.78997 9.16122 1.70861 8.55605C1.6258 7.9401 1.625 7.13019 1.625 6H0.875ZM10.375 6C10.375 7.13019 10.3742 7.9401 10.2914 8.55605C10.21 9.16122 10.0557 9.52269 9.78921 9.78921L10.3195 10.3195C10.7486 9.89045 10.9422 9.34432 11.0347 8.65599C11.1258 7.97845 11.125 7.10898 11.125 6H10.375ZM6 11.125C7.10898 11.125 7.97845 11.1258 8.65599 11.0347C9.34432 10.9422 9.89045 10.7486 10.3195 10.3195L9.78921 9.78921C9.52269 10.0557 9.16122 10.21 8.55605 10.2914C7.9401 10.3742 7.13019 10.375 6 10.375V11.125ZM6 1.625C7.13019 1.625 7.9401 1.6258 8.55605 1.70861C9.16122 1.78997 9.52269 1.94426 9.78921 2.21079L10.3195 1.68046C9.89045 1.25136 9.34432 1.05784 8.65599 0.965297C7.97845 0.874204 7.10898 0.875 6 0.875V1.625ZM11.125 6C11.125 4.89102 11.1258 4.02155 11.0347 3.34401C10.9422 2.65568 10.7486 2.10956 10.3195 1.68046L9.78921 2.21079C10.0557 2.47731 10.21 2.83878 10.2914 3.44395C10.3742 4.0599 10.375 4.86981 10.375 6H11.125ZM6 0.875C4.89102 0.875 4.02155 0.874204 3.34401 0.965297C2.65568 1.05784 2.10956 1.25136 1.68046 1.68046L2.21079 2.21079C2.47731 1.94426 2.83878 1.78997 3.44395 1.70861C4.0599 1.6258 4.86981 1.625 6 1.625V0.875ZM1.625 6C1.625 4.86981 1.6258 4.0599 1.70861 3.44395C1.78997 2.83878 1.94426 2.47731 2.21079 2.21079L1.68046 1.68046C1.25136 2.10956 1.05784 2.65568 0.965297 3.34401C0.874204 4.02155 0.875 4.89102 0.875 6H1.625ZM5.74605 5.9999V8.4999H6.49605V5.9999H5.74605ZM5.62105 5.8749C5.68136 5.8749 5.72777 5.87493 5.76741 5.87593C5.80723 5.87693 5.83091 5.87876 5.8454 5.88071C5.85964 5.88263 5.85485 5.88341 5.84072 5.87759C5.82358 5.87054 5.80208 5.85772 5.78266 5.83829L6.31299 5.30796C6.19509 5.19006 6.05499 5.15214 5.94533 5.1374C5.84646 5.12411 5.72829 5.1249 5.62105 5.1249V5.8749ZM6.49605 5.9999C6.49605 5.89265 6.49684 5.77449 6.48355 5.67562C6.4688 5.56596 6.43089 5.42586 6.31299 5.30796L5.78266 5.83829C5.76323 5.81887 5.75041 5.79736 5.74336 5.78023C5.73754 5.76609 5.73832 5.76131 5.74024 5.77555C5.74218 5.79003 5.74402 5.81371 5.74502 5.85354C5.74602 5.89317 5.74605 5.93958 5.74605 5.9999H6.49605ZM5.99595 4.3749H6.00044V3.6249H5.99595V4.3749Z" />
</svg>
