<svg xmlns="http://www.w3.org/2000/svg" width="24" height="24" viewBox="0 0 24 24" fill="none">
    <path d="M7.40143 16.941L9.47146 19.0114M19.0116 14.6365C18.1327 15.5134 17.0311 16.1336 15.8257 16.4302C14.6203 16.7269 13.3568 16.6887 12.1715 16.3199L7.93244 20.5507C7.62643 20.8658 7.02343 21.0548 6.59142 20.9918L4.6294 20.7218C3.98139 20.6318 3.37838 20.0196 3.27938 19.3715L3.00938 17.4091C2.94638 16.977 3.15338 16.3739 3.45038 16.0678L7.68043 11.837C6.96043 9.49648 7.51843 6.84094 9.37246 4.99556C12.0275 2.34002 16.3385 2.34002 19.0026 4.99556C21.6666 7.65111 21.6666 11.981 19.0116 14.6365ZM14.2465 11.0989C14.6045 11.0989 14.9479 10.9566 15.2011 10.7034C15.4543 10.4502 15.5965 10.1067 15.5965 9.74859C15.5965 9.39048 15.4543 9.04703 15.2011 8.7938C14.9479 8.54058 14.6045 8.39832 14.2465 8.39832C13.8885 8.39832 13.5451 8.54058 13.2919 8.7938C13.0387 9.04703 12.8965 9.39048 12.8965 9.74859C12.8965 10.1067 13.0387 10.4502 13.2919 10.7034C13.5451 10.9566 13.8885 11.0989 14.2465 11.0989Z" stroke="#8C919B" stroke-width="1.5" stroke-linecap="round" stroke-linejoin="round"/>
</svg>