<svg width="24" height="24" viewBox="0 0 24 24" fill="none" xmlns="http://www.w3.org/2000/svg">
    <path d="M5.45058 13.8614L5.9646 14.1709L5.96594 14.1686L5.45058 13.8614ZM4.30058 15.7714L3.78656 15.4619L3.78647 15.4621L4.30058 15.7714ZM5.38058 18.7014L5.18822 19.2697L5.19044 19.2705L5.38058 18.7014ZM18.6506 18.7014L18.4623 18.1317L18.4604 18.1323L18.6506 18.7014ZM19.7306 15.7714L20.2451 15.4627L20.2446 15.4619L19.7306 15.7714ZM18.5806 13.8614L18.0608 14.1613L18.0666 14.1709L18.5806 13.8614ZM13.8706 3.20141L13.7062 3.77846C13.9256 3.84093 14.1614 3.77364 14.3147 3.60482C14.4681 3.43599 14.5124 3.19483 14.4292 2.98248L13.8706 3.20141ZM10.1706 3.20141L9.61194 2.98248C9.52873 3.19483 9.57309 3.43599 9.72644 3.60482C9.87978 3.77364 10.1156 3.84093 10.3349 3.77846L10.1706 3.20141ZM9.90058 21.1814L9.47599 21.6054L9.47631 21.6057L9.90058 21.1814ZM12.0206 2.31141C8.37921 2.31141 5.42058 5.27004 5.42058 8.91141H6.62058C6.62058 5.93278 9.04195 3.51141 12.0206 3.51141V2.31141ZM5.42058 8.91141V11.8014H6.62058V8.91141H5.42058ZM5.42058 11.8014C5.42058 12.0341 5.36872 12.3623 5.27369 12.7047C5.17871 13.0468 5.05397 13.3549 4.93521 13.5542L5.96594 14.1686C6.15718 13.8479 6.31744 13.431 6.42996 13.0256C6.54244 12.6205 6.62058 12.1787 6.62058 11.8014H5.42058ZM4.93656 13.5519L3.78656 15.4619L4.8146 16.0809L5.9646 14.1709L4.93656 13.5519ZM3.78647 15.4621C3.34664 16.1931 3.25867 17.0053 3.52416 17.7223C3.78939 18.4385 4.38429 18.9976 5.18822 19.2697L5.57293 18.1331C5.07686 17.9652 4.77677 17.6493 4.64949 17.3056C4.52248 16.9625 4.54452 16.5298 4.81469 16.0807L3.78647 15.4621ZM5.19044 19.2705C9.62385 20.7517 14.4073 20.7517 18.8407 19.2705L18.4604 18.1323C14.2738 19.5311 9.75731 19.5311 5.57071 18.1323L5.19044 19.2705ZM18.8389 19.2711C20.4161 18.7497 21.1017 16.8904 20.2451 15.4627L19.2161 16.0801C19.6795 16.8524 19.305 17.8531 18.4623 18.1317L18.8389 19.2711ZM20.2446 15.4619L19.0946 13.5519L18.0666 14.1709L19.2166 16.0809L20.2446 15.4619ZM19.1003 13.5616C18.984 13.3599 18.8608 13.0494 18.7667 12.7065C18.6725 12.3629 18.6206 12.0343 18.6206 11.8014H17.4206C17.4206 12.1785 17.4987 12.6199 17.6094 13.0238C17.7204 13.4284 17.8772 13.8429 18.0609 14.1612L19.1003 13.5616ZM18.6206 11.8014V8.91141H17.4206V11.8014H18.6206ZM18.6206 8.91141C18.6206 5.28004 15.6519 2.31141 12.0206 2.31141V3.51141C14.9892 3.51141 17.4206 5.94278 17.4206 8.91141H18.6206ZM14.0349 2.62435C12.7182 2.24935 11.3229 2.24935 10.0062 2.62435L10.3349 3.77846C11.4368 3.46464 12.6044 3.46464 13.7062 3.77846L14.0349 2.62435ZM10.7292 3.42033C10.9317 2.90375 11.4343 2.54141 12.0206 2.54141V1.34141C10.9269 1.34141 9.9895 2.01906 9.61194 2.98248L10.7292 3.42033ZM12.0206 2.54141C12.6069 2.54141 13.1095 2.90375 13.3119 3.42033L14.4292 2.98248C14.0517 2.01906 13.1143 1.34141 12.0206 1.34141V2.54141ZM14.4206 19.0614C14.4206 20.38 13.3392 21.4614 12.0206 21.4614V22.6614C14.0019 22.6614 15.6206 21.0428 15.6206 19.0614H14.4206ZM12.0206 21.4614C11.3666 21.4614 10.7573 21.1896 10.3248 20.7571L9.47631 21.6057C10.1239 22.2533 11.0346 22.6614 12.0206 22.6614V21.4614ZM10.3252 20.7575C9.87531 20.3069 9.62201 19.6967 9.62057 19.0601L8.42058 19.0628C8.42273 20.0164 8.80215 20.9305 9.47599 21.6054L10.3252 20.7575Z" fill="#F5FAFF"/>
</svg>
