<svg width="24" height="24" viewBox="0 0 24 24" fill="none" xmlns="http://www.w3.org/2000/svg">
    <path d="M5.45009 13.8614L6.09262 14.2483L6.0943 14.2455L5.45009 13.8614ZM4.30009 15.7714L3.65756 15.3845L3.65745 15.3847L4.30009 15.7714ZM5.38009 18.7014L5.13964 19.4118L5.14242 19.4128L5.38009 18.7014ZM18.6501 18.7014L18.4147 17.9893L18.4124 17.9901L18.6501 18.7014ZM19.7301 15.7714L20.3732 15.3855L20.3726 15.3845L19.7301 15.7714ZM18.5801 13.8614L17.9303 14.2363L17.9376 14.2483L18.5801 13.8614ZM13.8701 3.20141L13.6647 3.92272C13.9388 4.00081 14.2336 3.9167 14.4253 3.70567C14.6169 3.49464 14.6724 3.19318 14.5684 2.92775L13.8701 3.20141ZM10.1701 3.20141L9.4718 2.92775C9.36777 3.19318 9.42323 3.49464 9.61491 3.70567C9.80659 3.9167 10.1013 4.00081 10.3755 3.92272L10.1701 3.20141ZM9.90009 21.1814L9.36936 21.7113L9.36976 21.7117L9.90009 21.1814ZM12.0201 2.16141C8.29587 2.16141 5.27009 5.18719 5.27009 8.91141H6.77009C6.77009 6.01562 9.1243 3.66141 12.0201 3.66141V2.16141ZM5.27009 8.91141V11.8014H6.77009V8.91141H5.27009ZM5.27009 11.8014C5.27009 12.016 5.22151 12.3301 5.12866 12.6645C5.03588 12.9988 4.91559 13.2933 4.80588 13.4774L6.0943 14.2455C6.29459 13.9095 6.45929 13.479 6.57401 13.0658C6.68866 12.6527 6.77009 12.1968 6.77009 11.8014H5.27009ZM4.80756 13.4745L3.65756 15.3845L4.94261 16.1583L6.09261 14.2483L4.80756 13.4745ZM3.65745 15.3847C3.19641 16.151 3.10021 17.0106 3.38301 17.7743C3.66548 18.5372 4.29723 19.1267 5.13964 19.4118L5.62054 17.991C5.16294 17.8361 4.8997 17.5506 4.78967 17.2535C4.67997 16.9572 4.69376 16.5718 4.94273 16.1581L3.65745 15.3847ZM5.14242 19.4128C9.60668 20.9043 14.4235 20.9043 18.8878 19.4128L18.4124 17.9901C14.2567 19.3785 9.7735 19.3785 5.61775 17.9901L5.14242 19.4128ZM18.8855 19.4135C20.5545 18.8618 21.279 16.8951 20.3732 15.3855L19.087 16.1573C19.5012 16.8477 19.1656 17.7411 18.4147 17.9893L18.8855 19.4135ZM20.3726 15.3845L19.2226 13.4745L17.9376 14.2483L19.0876 16.1583L20.3726 15.3845ZM19.2297 13.4866C19.1218 13.2996 19.0028 13.002 18.9109 12.6668C18.8187 12.3308 18.7701 12.0163 18.7701 11.8014H17.2701C17.2701 12.1965 17.3515 12.6521 17.4643 13.0635C17.5774 13.4758 17.7384 13.9032 17.9304 14.2362L19.2297 13.4866ZM18.7701 11.8014V8.91141H17.2701V11.8014H18.7701ZM18.7701 8.91141C18.7701 5.19719 15.7343 2.16141 12.0201 2.16141V3.66141C14.9059 3.66141 17.2701 6.02562 17.2701 8.91141H18.7701ZM14.0755 2.48009C12.7319 2.09743 11.3082 2.09743 9.96465 2.48009L10.3755 3.92272C11.4505 3.61656 12.5897 3.61656 13.6647 3.92272L14.0755 2.48009ZM10.8684 3.47506C11.0489 3.01434 11.4972 2.69141 12.0201 2.69141V1.19141C10.8629 1.19141 9.87124 1.90847 9.4718 2.92775L10.8684 3.47506ZM12.0201 2.69141C12.5429 2.69141 12.9912 3.01434 13.1718 3.47506L14.5684 2.92775C14.1689 1.90847 13.1772 1.19141 12.0201 1.19141V2.69141ZM14.2701 19.0614C14.2701 20.2972 13.2559 21.3114 12.0201 21.3114V22.8114C14.0843 22.8114 15.7701 21.1256 15.7701 19.0614H14.2701ZM12.0201 21.3114C11.4076 21.3114 10.8359 21.0566 10.4304 20.6511L9.36976 21.7117C10.0442 22.3862 10.9926 22.8114 12.0201 22.8114V21.3114ZM10.4308 20.6515C10.009 20.229 9.77143 19.6567 9.77009 19.0597L8.27009 19.0631C8.27233 20.0564 8.66752 21.0084 9.36936 21.7113L10.4308 20.6515Z" fill="#53B1FD"/>
</svg>
