<svg width="23" height="23" viewBox="0 0 23 23" fill="none" xmlns="http://www.w3.org/2000/svg">
    <path d="M3.25 11.5C3.25 12.2594 3.86561 12.875 4.625 12.875C5.38439 12.875 6 12.2594 6 11.5C6 10.7406 5.38439 10.125 4.625 10.125C3.86561 10.125 3.25 10.7406 3.25 11.5Z" stroke-width="1.5"/>
    <path d="M10.125 11.5C10.125 12.2594 10.7406 12.875 11.5 12.875C12.2594 12.875 12.875 12.2594 12.875 11.5C12.875 10.7406 12.2594 10.125 11.5 10.125C10.7406 10.125 10.125 10.7406 10.125 11.5Z" stroke-width="1.5"/>
    <path d="M17 11.5C17 12.2594 17.6156 12.875 18.375 12.875C19.1344 12.875 19.75 12.2594 19.75 11.5C19.75 10.7406 19.1344 10.125 18.375 10.125C17.6156 10.125 17 10.7406 17 11.5Z" stroke-width="1.5"/>
</svg>
