<svg width="20" height="20" viewBox="0 0 20 20" fill="none" xmlns="http://www.w3.org/2000/svg">
<path d="M8.53425 14.9448C9.95327 14.9448 11.2618 14.4903 12.3324 13.7328L16.3601 17.7223C16.547 17.9074 16.7934 18 17.0568 18C17.6091 18 18 17.5792 18 17.0405C18 16.788 17.915 16.5439 17.7281 16.3672L13.726 12.3945C14.5672 11.3004 15.0685 9.94529 15.0685 8.47238C15.0685 4.91215 12.1285 2 8.53425 2C4.94849 2 2 4.90373 2 8.47238C2 12.0326 4.93999 14.9448 8.53425 14.9448ZM8.53425 13.5476C5.73022 13.5476 3.41052 11.2499 3.41052 8.47238C3.41052 5.6949 5.73022 3.39716 8.53425 3.39716C11.3383 3.39716 13.658 5.6949 13.658 8.47238C13.658 11.2499 11.3383 13.5476 8.53425 13.5476Z" fill="#2E90FA"/>
</svg>
