<svg xmlns="http://www.w3.org/2000/svg" width="24" height="24" viewBox="0 0 24 24" fill="none">
    <path d="M18.7 16.25C19 17.33 19.84 18.17 20.92 18.47M3.40997 22C3.40997 18.13 7.25997 15 12 15C13.04 15 14.04 15.15 14.97 15.43M12 12C13.3261 12 14.5978 11.4732 15.5355 10.5355C16.4732 9.59785 17 8.32608 17 7C17 5.67392 16.4732 4.40215 15.5355 3.46447C14.5978 2.52678 13.3261 2 12 2C10.6739 2 9.40212 2.52678 8.46444 3.46447C7.52676 4.40215 6.99997 5.67392 6.99997 7C6.99997 8.32608 7.52676 9.59785 8.46444 10.5355C9.40212 11.4732 10.6739 12 12 12ZM19.21 15.74L15.67 19.28C15.53 19.42 15.4 19.68 15.37 19.87L15.18 21.22C15.11 21.71 15.45 22.05 15.94 21.98L17.29 21.79C17.48 21.76 17.75 21.63 17.88 21.49L21.42 17.95C22.03 17.34 22.32 16.63 21.42 15.73C20.53 14.84 19.82 15.13 19.21 15.74Z" stroke="#53B1FD" stroke-width="1.5" stroke-linecap="round" stroke-linejoin="round"/>
</svg>