<svg width="24" height="24" viewBox="0 0 24 24" fill="none" xmlns="http://www.w3.org/2000/svg">
    <path d="M10.43 17.6218C10.71 17.5118 10.96 17.3518 11.21 17.1718L13.18 15.5918C16.41 13.0018 20.27 7.78183 21.81 3.94183C22.05 3.36183 21.87 2.79183 21.49 2.42183C21.13 2.05183 20.56 1.89183 19.97 2.11183C16.14 3.64183 10.9 7.52183 8.32003 10.7518L6.76003 12.7218C6.55003 12.9618 6.38003 13.2518 6.27003 13.5618C6.47003 13.5418 6.67003 13.5618 6.87003 13.5718C7.72003 13.6818 8.55003 14.0818 9.23003 14.7618C9.90003 15.4318 10.28 16.2118 10.39 17.0518C10.42 17.2418 10.43 17.4418 10.43 17.6218ZM10.43 17.6218C10.43 18.7218 10.01 19.7718 9.22003 20.5718C8.61003 21.1818 7.78003 21.6018 6.79003 21.7318L4.33003 22.0018C2.99003 22.1518 1.84003 21.0118 2.00003 19.6518L2.27003 17.1918C2.51003 15.0018 4.34003 13.6018 6.28003 13.5618C6.48003 13.5518 6.69003 13.5618 6.88003 13.5718C7.73003 13.6818 8.56003 14.0718 9.24003 14.7618C9.91003 15.4318 10.29 16.2118 10.4 17.0518C10.41 17.2418 10.43 17.4318 10.43 17.6218ZM14.24 14.4718C14.24 11.8618 12.12 9.74183 9.51003 9.74183" stroke="#53B1FD" stroke-width="1.5" stroke-linecap="round" stroke-linejoin="round"/>
</svg>
