<svg width="24" height="24" viewBox="0 0 24 24" fill="none" xmlns="http://www.w3.org/2000/svg">
    <path d="M6.99854 7.24324C6.58432 7.24324 6.24854 7.57902 6.24854 7.99324C6.24854 8.40745 6.58432 8.74324 6.99854 8.74324V7.24324ZM21.1199 21.1209L21.6503 21.6511V21.6511L21.1199 21.1209ZM21.1199 8.87234L20.5894 9.40254L21.1199 8.87234ZM3.17011 5.16344L3.70057 5.69365L3.17011 5.16344ZM7.99854 4V3.24992L7.98768 3.25008L7.99854 4ZM9.99853 4.75C10.4127 4.75 10.7485 4.41421 10.7485 4C10.7485 3.58579 10.4127 3.25 9.99853 3.25V4.75ZM15.2485 14C15.2485 15.2426 16.2559 16.25 17.4985 16.25V14.75C17.0843 14.75 16.7485 14.4142 16.7485 14H15.2485ZM17.4985 16.25C18.7412 16.25 19.7485 15.2426 19.7485 14H18.2485C18.2485 14.4142 17.9127 14.75 17.4985 14.75V16.25ZM19.7485 14C19.7485 12.7574 18.7412 11.75 17.4985 11.75V13.25C17.9127 13.25 18.2485 13.5858 18.2485 14H19.7485ZM17.4985 11.75C16.2559 11.75 15.2485 12.7574 15.2485 14H16.7485C16.7485 13.5858 17.0843 13.25 17.4985 13.25V11.75ZM19.7485 7C19.7485 3.82436 17.1742 1.25 13.9985 1.25V2.75C16.3457 2.75 18.2485 4.65279 18.2485 7H19.7485ZM13.9985 1.25C10.8229 1.25 8.24854 3.82436 8.24854 7H9.74854C9.74854 4.65279 11.6513 2.75 13.9985 2.75V1.25ZM19.6335 8.1492C19.709 7.77726 19.7485 7.39286 19.7485 7H18.2485C18.2485 7.29207 18.2192 7.57652 18.1635 7.8508L19.6335 8.1492ZM8.24854 7C8.24854 7.39286 8.28804 7.77726 8.36354 8.1492L9.83356 7.8508C9.77789 7.57652 9.74854 7.29208 9.74854 7H8.24854ZM21.2485 13.9961V15.9971H22.7485V13.9961H21.2485ZM15.9985 21.25H9.99853V22.75H15.9985V21.25ZM2.74854 13.9961V11.9952H1.24854V13.9961H2.74854ZM6.99854 8.74324H15.9985V7.24324H6.99854V8.74324ZM9.99853 21.25C8.0917 21.25 6.73707 21.2484 5.70943 21.1102C4.70341 20.9749 4.12379 20.7211 3.70057 20.2977L2.63965 21.3581C3.388 22.1068 4.33698 22.4391 5.50946 22.5968C6.66034 22.7516 8.13413 22.75 9.99853 22.75V21.25ZM1.24854 13.9961C1.24854 15.8615 1.24694 17.3359 1.40166 18.4872C1.55928 19.6601 1.89135 20.6094 2.63965 21.3581L3.70057 20.2977C3.27729 19.8742 3.02358 19.2941 2.8883 18.2875C2.75013 17.2592 2.74854 15.9039 2.74854 13.9961H1.24854ZM21.2485 15.9971C21.2485 17.4332 21.2469 18.4348 21.1454 19.1906C21.0467 19.9249 20.8662 20.3137 20.5894 20.5907L21.6503 21.6511C22.2522 21.049 22.511 20.2908 22.632 19.3904C22.7501 18.5115 22.7485 17.3908 22.7485 15.9971H21.2485ZM15.9985 22.75C17.3915 22.75 18.5118 22.7516 19.3903 22.6334C20.2905 22.5123 21.0484 22.2533 21.6503 21.6511L20.5894 20.5907C20.3126 20.8676 19.9241 21.0481 19.1904 21.1468C18.435 21.2484 17.434 21.25 15.9985 21.25V22.75ZM22.7485 13.9961C22.7485 12.6024 22.7501 11.4817 22.632 10.6028C22.511 9.7024 22.2522 8.94428 21.6503 8.34214L20.5894 9.40254C20.8662 9.6795 21.0467 10.0684 21.1454 10.8026C21.2469 11.5584 21.2485 12.56 21.2485 13.9961H22.7485ZM15.9985 8.74324C17.434 8.74324 18.435 8.74483 19.1904 8.84643C19.9241 8.94512 20.3126 9.12563 20.5894 9.40254L21.6503 8.34214C21.0484 7.73995 20.2905 7.4809 19.3903 7.35982C18.5118 7.24164 17.3915 7.24324 15.9985 7.24324V8.74324ZM2.74854 11.9952C2.74854 10.0874 2.75013 8.73207 2.8883 7.70385C3.02358 6.69717 3.27729 6.11712 3.70057 5.69365L2.63965 4.63324C1.89135 5.3819 1.55928 6.33119 1.40166 7.50407C1.24694 8.65542 1.24854 10.1298 1.24854 11.9952H2.74854ZM7.98768 3.25008C5.56019 3.28521 3.82989 3.44243 2.63965 4.63324L3.70057 5.69365C4.3965 4.99738 5.47775 4.78656 8.00939 4.74992L7.98768 3.25008ZM7.99854 4.75H9.99853V3.25H7.99854V4.75Z" fill="#53B1FD"/>
</svg>
