<svg width="22" height="22" viewBox="0 0 22 22" fill="none" xmlns="http://www.w3.org/2000/svg">
<path d="M2.46496 19.3097L1.95721 19.8617L2.46496 19.3097ZM1.06322 16.8293L1.7975 16.6766L1.06322 16.8293ZM17.6783 8.68293L17.0253 9.05193L17.6783 8.68293ZM20.9368 16.8293L20.2025 16.6766L20.9368 16.8293ZM19.535 19.3097L19.0273 18.7577L19.535 19.3097ZM12.4017 1.72681L12.638 1.015L12.4017 1.72681ZM9.59826 1.72681L9.36198 1.015L9.59826 1.72681ZM10.992 14.25C10.5778 14.25 10.242 14.5858 10.242 15C10.242 15.4142 10.5778 15.75 10.992 15.75V14.25ZM11.001 15.75C11.4152 15.75 11.751 15.4142 11.751 15C11.751 14.5858 11.4152 14.25 11.001 14.25V15.75ZM10.25 12C10.25 12.4142 10.5858 12.75 11 12.75C11.4142 12.75 11.75 12.4142 11.75 12H10.25ZM11.75 8C11.75 7.58579 11.4142 7.25 11 7.25C10.5858 7.25 10.25 7.58579 10.25 8H11.75ZM11 19.75C8.5686 19.75 6.80696 19.7489 5.48854 19.6056C4.16851 19.4621 3.44015 19.1877 2.97271 18.7577L1.95721 19.8617C2.78378 20.622 3.90926 20.9428 5.32642 21.0968C6.74517 21.2511 8.60405 21.25 11 21.25V19.75ZM3.66876 8.31392C2.47033 10.4345 1.54124 12.0765 0.96365 13.4065C0.386996 14.7343 0.0997936 15.8807 0.328948 16.9821L1.7975 16.6766C1.66462 16.0379 1.79983 15.2467 2.3395 14.004C2.87824 12.7635 3.75941 11.2023 4.97465 9.05193L3.66876 8.31392ZM2.97271 18.7577C2.37754 18.2102 1.9651 17.4821 1.7975 16.6766L0.328948 16.9821C0.559675 18.0911 1.12862 19.0995 1.95721 19.8617L2.97271 18.7577ZM17.0253 9.05193C18.2406 11.2023 19.1218 12.7635 19.6605 14.004C20.2002 15.2467 20.3354 16.0379 20.2025 16.6766L21.6711 16.9821C21.9002 15.8807 21.613 14.7343 21.0363 13.4065C20.4588 12.0765 19.5297 10.4345 18.3312 8.31392L17.0253 9.05193ZM11 21.25C13.396 21.25 15.2548 21.2511 16.6736 21.0968C18.0907 20.9428 19.2162 20.622 20.0428 19.8617L19.0273 18.7577C18.5598 19.1877 17.8315 19.4621 16.5115 19.6056C15.193 19.7489 13.4314 19.75 11 19.75V21.25ZM20.2025 16.6766C20.0349 17.4821 19.6225 18.2102 19.0273 18.7577L20.0428 19.8617C20.8714 19.0995 21.4403 18.0911 21.6711 16.9821L20.2025 16.6766ZM18.3312 8.31392C17.1329 6.19347 16.2054 4.55027 15.3665 3.37395C14.5304 2.20141 13.6981 1.36687 12.638 1.015L12.1655 2.43862C12.7614 2.63645 13.3606 3.1445 14.1453 4.24486C14.9273 5.34143 15.81 6.90144 17.0253 9.05193L18.3312 8.31392ZM4.97465 9.05193C6.18998 6.90144 7.07275 5.34143 7.85474 4.24486C8.63942 3.1445 9.23855 2.63645 9.83454 2.43862L9.36198 1.015C8.30193 1.36687 7.46962 2.20141 6.63346 3.37395C5.7946 4.55027 4.86711 6.19347 3.66876 8.31392L4.97465 9.05193ZM12.638 1.015C11.5736 0.661666 10.4264 0.661666 9.36198 1.015L9.83454 2.43862C10.5922 2.18713 11.4078 2.18713 12.1655 2.43862L12.638 1.015ZM10.992 15.75H11.001V14.25H10.992V15.75ZM11.75 12V8H10.25V12H11.75Z" fill="#FFB319"/>
</svg>
