<svg width="23" height="23" viewBox="0 0 23 23" fill="none" xmlns="http://www.w3.org/2000/svg">
    <path d="M6.00027 5.08458V6.91792M9.66694 5.08458V6.91792M6.00027 16.0846V17.9179M9.66694 16.0846V17.9179M18.2103 9.66792H4.79944C3.44277 9.66792 2.34277 8.55875 2.34277 7.21125V4.80042C2.34277 3.44375 3.45194 2.34375 4.79944 2.34375H18.2103C19.5669 2.34375 20.6669 3.45292 20.6669 4.80042V7.21125C20.6669 8.55875 19.5578 9.66792 18.2103 9.66792ZM18.2103 20.6679H4.79944C3.44277 20.6679 2.34277 19.5587 2.34277 18.2112V15.8004C2.34277 14.4437 3.45194 13.3437 4.79944 13.3437H18.2103C19.5669 13.3437 20.6669 14.4529 20.6669 15.8004V18.2112C20.6669 19.5587 19.5578 20.6679 18.2103 20.6679Z" stroke-width="1.5" stroke-linecap="round" stroke-linejoin="round"/>
</svg>
