<svg width="111" height="146" viewBox="0 0 111 146" fill="none" xmlns="http://www.w3.org/2000/svg">
<g filter="url(#filter0_d_2347_121539)">
<g filter="url(#filter1_d_2347_121539)">
<path d="M74.6113 49C63.1939 49 53.291 51.3421 47.1977 54.6594C47.0291 54.7518 46.6577 54.9283 46.5 55.0306C48.3205 54.1888 50.4914 53.55 52.5227 53.3037H52.5336C53.2808 53.211 54.0381 53.1701 54.7962 53.1701C55.1534 53.1701 55.5008 53.1804 55.8481 53.2007C59.7419 53.4167 63.446 54.803 66.4666 57.1139C66.4873 57.1242 66.5084 57.1345 66.5296 57.1551C66.5612 57.1758 66.5718 57.1964 66.5929 57.2166C68.0661 58.357 69.371 59.7329 70.455 61.2944L70.7601 61.7358L70.7915 61.7873H70.8023L77.9793 72.1712C81.4518 77.1935 88.4186 78.5084 93.554 75.1189C96.7748 73.0031 98.5 69.5519 98.5 66.0395C98.5 63.934 97.8799 61.7976 96.5742 59.9181C91.8598 53.088 83.9674 49 75.5379 49H74.6113Z" fill="url(#paint0_linear_2347_121539)"/>
<path d="M46.4546 12.9145L21.8859 49.4422L19.026 53.6954L17.8361 55.4659L14.403 60.5778C13.86 61.3842 13.4422 62.2432 13.1291 63.1232C12.4611 65.0086 12.3364 67.0096 12.7012 68.9161C13.1396 71.2523 14.3193 73.4415 16.1667 75.1177C16.5531 75.4635 16.9594 75.7879 17.3978 76.0815C22.4915 79.5384 29.4107 78.1974 32.855 73.075C32.855 73.075 38.5435 63.6469 41.0583 60.8917C41.2045 60.7242 41.3612 60.5568 41.528 60.389C43.0725 58.5351 44.9621 57.0161 47.0595 55.8951C47.2794 55.7798 48.145 55.3086 48.3122 55.2144C54.3553 51.831 64.1767 49.4422 75.5 49.4422H48.7505L55.8481 38.8934L64.9173 25.4114C66.2011 23.4948 66.8168 21.3264 66.8168 19.1684C66.8168 15.5755 65.1051 12.0555 61.9118 9.89758C60.0536 8.64062 57.9454 8.02267 55.8481 8.00165C55.784 8.00034 55.7208 8 55.6567 8C52.1002 8 48.5971 9.72453 46.4546 12.9145Z" fill="url(#paint1_linear_2347_121539)"/>
</g>
<path d="M27.4964 101.551V108.099C27.4964 109.967 26.8631 111.34 25.5966 112.217C24.33 113.072 22.3185 113.5 19.5619 113.5C14.5206 113.5 12 111.767 12 108.302C12 106.546 12.6208 105.264 13.8625 104.454C15.1291 103.621 17.0413 103.205 19.5992 103.205H23.6968V101.551C23.6968 100.605 23.3491 99.9416 22.6538 99.5591C21.9832 99.1765 20.8657 98.9852 19.3012 98.9852C17.8111 98.9852 16.5074 99.0865 15.3898 99.289C14.8435 99.379 14.471 99.3565 14.2723 99.2215C14.0985 99.064 14.0115 98.7264 14.0115 98.2089V97.7363C14.0115 97.2412 14.0985 96.9037 14.2723 96.7236C14.471 96.5211 14.8311 96.3748 15.3526 96.2848C16.6688 96.1048 17.9105 96.0148 19.0777 96.0148C21.9087 96.0148 24.0196 96.4536 25.4103 97.3312C26.801 98.2089 27.4964 99.6153 27.4964 101.551ZM23.6968 107.93V105.838H19.5992C18.3078 105.838 17.3517 106.029 16.7309 106.411C16.1348 106.771 15.8368 107.379 15.8368 108.234C15.8368 109.067 16.1348 109.663 16.7309 110.023C17.3269 110.383 18.2457 110.563 19.4874 110.563C21.0023 110.563 22.0826 110.372 22.7283 109.989C23.3739 109.607 23.6968 108.921 23.6968 107.93Z" fill="white"/>
<path d="M31.0812 108.403V91.019C31.0812 90.4114 31.1929 90.0063 31.4164 89.8038C31.6399 89.6013 32.087 89.5 32.7575 89.5H33.2417C33.9122 89.5 34.3593 89.6013 34.5828 89.8038C34.8063 90.0063 34.918 90.4114 34.918 91.019V107.728C34.918 108.605 35.0546 109.224 35.3278 109.584C35.601 109.944 36.048 110.124 36.6688 110.124C37.2897 110.124 37.6746 110.203 37.8236 110.361C37.9974 110.518 38.0843 110.89 38.0843 111.475V111.812C38.0843 112.352 37.985 112.724 37.7863 112.926C37.5877 113.106 37.1779 113.252 36.5571 113.365C36.4826 113.387 36.3087 113.399 36.0355 113.399C34.471 113.399 33.2541 112.982 32.385 112.15C31.5158 111.295 31.0812 110.046 31.0812 108.403Z" fill="white"/>
<path d="M40.4277 108.403V91.019C40.4277 90.4114 40.5394 90.0063 40.7629 89.8038C40.9864 89.6013 41.4334 89.5 42.1039 89.5H42.5882C43.2587 89.5 43.7057 89.6013 43.9292 89.8038C44.1527 90.0063 44.2645 90.4114 44.2645 91.019V107.728C44.2645 108.605 44.4011 109.224 44.6743 109.584C44.9474 109.944 45.3944 110.124 46.0153 110.124C46.6361 110.124 47.0211 110.203 47.1701 110.361C47.3439 110.518 47.4308 110.89 47.4308 111.475V111.812C47.4308 112.352 47.3315 112.724 47.1328 112.926C46.9341 113.106 46.5244 113.252 45.9035 113.365C45.829 113.387 45.6552 113.399 45.382 113.399C43.8175 113.399 42.6006 112.982 41.7314 112.15C40.8622 111.295 40.4277 110.046 40.4277 108.403Z" fill="white"/>
<path d="M49.8486 106.276V91.019C49.8486 90.4114 49.9604 90.0063 50.1839 89.8038C50.4074 89.6013 50.8544 89.5 51.5249 89.5H51.9719C52.6424 89.5 53.0895 89.6013 53.313 89.8038C53.5365 90.0063 53.6482 90.4114 53.6482 91.019V98.2089C54.6664 96.7461 56.4917 96.0148 59.1241 96.0148C64.2896 96.0148 66.8723 98.4677 66.8723 103.373V106.276C66.8723 111.092 64.0288 113.5 58.3418 113.5C55.6101 113.5 53.5116 112.892 52.0464 111.677C50.5812 110.44 49.8486 108.639 49.8486 106.276ZM63.0354 106.209V103.306C63.0354 101.821 62.6878 100.774 61.9924 100.167C61.3219 99.5591 60.1175 99.2553 58.3791 99.2553C56.6159 99.2553 55.3866 99.5591 54.6912 100.167C53.9959 100.774 53.6482 101.821 53.6482 103.306V106.209C53.6482 107.672 53.9959 108.707 54.6912 109.314C55.3866 109.922 56.6159 110.226 58.3791 110.226C60.1423 110.226 61.3592 109.933 62.0297 109.348C62.7002 108.741 63.0354 107.694 63.0354 106.209Z" fill="white"/>
<path d="M68.9068 98.4451V98.1076C68.9068 97.635 68.9937 97.3087 69.1676 97.1287C69.3414 96.9487 69.6767 96.8136 70.1734 96.7236L72.1476 96.3861L72.5947 93.2131C72.6692 92.718 72.8057 92.3917 73.0044 92.2342C73.2031 92.0767 73.5756 91.9979 74.1219 91.9979H74.6062C75.1526 91.9979 75.5126 92.0767 75.6865 92.2342C75.8603 92.3917 75.9472 92.718 75.9472 93.2131V96.3861H81.1624C81.7832 96.3861 82.193 96.4761 82.3916 96.6561C82.6151 96.8361 82.7269 97.2187 82.7269 97.8038V98.2089C82.7269 98.794 82.6151 99.1765 82.3916 99.3565C82.193 99.5366 81.7832 99.6266 81.1624 99.6266H75.9472V107.289C75.9472 109.247 76.9158 110.226 78.8528 110.226C79.9703 110.226 80.9761 110.124 81.8701 109.922C82.491 109.809 82.9007 109.832 83.0994 109.989C83.2981 110.147 83.3974 110.518 83.3974 111.103V111.508C83.3974 112.071 83.2981 112.465 83.0994 112.69C82.9007 112.915 82.491 113.084 81.8701 113.196C80.7278 113.376 79.722 113.466 78.8528 113.466C74.3827 113.466 72.1476 111.396 72.1476 107.255V99.6266H70.2106C69.6891 99.6266 69.3414 99.5478 69.1676 99.3903C68.9937 99.2328 68.9068 98.9177 68.9068 98.4451Z" fill="white"/>
<path d="M85.6642 106.411V103.103C85.6642 100.831 86.3968 99.0865 87.862 97.8713C89.352 96.6336 91.4877 96.0148 94.2691 96.0148C95.2873 96.0148 96.2559 96.1273 97.1747 96.3523C97.7956 96.4873 98.1929 96.6674 98.3667 96.8924C98.5654 97.0949 98.6647 97.4775 98.6647 98.0401V98.4789C98.6647 99.064 98.553 99.4353 98.3295 99.5928C98.106 99.7504 97.6962 99.7504 97.1002 99.5928C96.4297 99.3678 95.5108 99.2553 94.3436 99.2553C92.5556 99.2553 91.3015 99.5478 90.5813 100.133C89.8611 100.718 89.501 101.719 89.501 103.137V106.31C89.501 107.773 89.8735 108.797 90.6186 109.382C91.3884 109.944 92.717 110.226 94.6044 110.226C95.3246 110.226 96.2807 110.124 97.4727 109.922C98.0687 109.809 98.4661 109.832 98.6647 109.989C98.8882 110.147 99 110.507 99 111.07V111.475C99 112.015 98.8882 112.397 98.6647 112.622C98.4661 112.847 98.0563 113.027 97.4355 113.162C96.4669 113.387 95.4612 113.5 94.4181 113.5C88.5822 113.5 85.6642 111.137 85.6642 106.411Z" fill="white"/>
<path d="M34.5 137.45V126.973C34.5 125.34 34.9446 124.103 35.8338 123.263C36.7383 122.423 38.0414 122.003 39.7431 122.003C41.5214 122.003 42.8398 122.408 43.6984 123.217C44.5722 124.026 45.0091 125.278 45.0091 126.973V129.003C45.0091 132.394 43.4147 134.09 40.226 134.09C38.6009 134.09 37.4741 133.584 36.8456 132.573V137.45C36.8456 137.87 36.7766 138.15 36.6386 138.29C36.5006 138.43 36.2247 138.5 35.8108 138.5H35.5348C35.1209 138.5 34.8449 138.43 34.707 138.29C34.569 138.15 34.5 137.87 34.5 137.45ZM42.6405 129.05V127.043C42.6405 126.017 42.4336 125.293 42.0197 124.873C41.6057 124.453 40.8545 124.243 39.7661 124.243C38.6776 124.243 37.9187 124.453 37.4895 124.873C37.0602 125.293 36.8456 126.017 36.8456 127.043V129.05C36.8456 130.061 37.0602 130.777 37.4895 131.197C37.9187 131.617 38.6776 131.827 39.7661 131.827C40.8545 131.827 41.6057 131.624 42.0197 131.22C42.4336 130.8 42.6405 130.077 42.6405 129.05Z" fill="white"/>
<path d="M55.1185 129.05V127.043C55.1185 126.017 54.9039 125.293 54.4746 124.873C54.0607 124.453 53.3172 124.243 52.244 124.243C51.1555 124.243 50.3967 124.453 49.9674 124.873C49.5382 125.293 49.3235 126.017 49.3235 127.043V129.05C49.3235 130.061 49.5382 130.777 49.9674 131.197C50.3967 131.617 51.1555 131.827 52.244 131.827C53.3325 131.827 54.0837 131.624 54.4976 131.22C54.9115 130.8 55.1185 130.077 55.1185 129.05ZM52.244 134.09C50.435 134.09 49.1012 133.678 48.2427 132.853C47.3842 132.029 46.955 130.761 46.955 129.05V127.043C46.955 123.683 48.718 122.003 52.244 122.003C54.0377 122.003 55.3561 122.423 56.1993 123.263C57.0578 124.088 57.4871 125.348 57.4871 127.043V129.05C57.4871 130.699 57.0425 131.951 56.1533 132.807C55.2795 133.662 53.9764 134.09 52.244 134.09Z" fill="white"/>
<path d="M67.6029 129.05V127.043C67.6029 126.017 67.3883 125.293 66.959 124.873C66.5451 124.453 65.8016 124.243 64.7284 124.243C63.64 124.243 62.8811 124.453 62.4519 124.873C62.0226 125.293 61.808 126.017 61.808 127.043V129.05C61.808 130.061 62.0226 130.777 62.4519 131.197C62.8811 131.617 63.64 131.827 64.7284 131.827C65.8169 131.827 66.5681 131.624 66.982 131.22C67.396 130.8 67.6029 130.077 67.6029 129.05ZM64.7284 134.09C62.9194 134.09 61.5857 133.678 60.7272 132.853C59.8686 132.029 59.4394 130.761 59.4394 129.05V127.043C59.4394 123.683 61.2024 122.003 64.7284 122.003C66.5221 122.003 67.8406 122.423 68.6837 123.263C69.5422 124.088 69.9715 125.348 69.9715 127.043V129.05C69.9715 130.699 69.5269 131.951 68.6377 132.807C67.7639 133.662 66.4608 134.09 64.7284 134.09Z" fill="white"/>
<path d="M72.1768 130.567V118.55C72.1768 118.13 72.2458 117.85 72.3837 117.71C72.5217 117.57 72.7977 117.5 73.2116 117.5H73.5105C73.9245 117.5 74.2004 117.57 74.3384 117.71C74.4764 117.85 74.5453 118.13 74.5453 118.55V130.1C74.5453 130.707 74.6297 131.134 74.7983 131.383C74.9669 131.632 75.2429 131.757 75.6262 131.757C76.0094 131.757 76.247 131.811 76.339 131.92C76.4463 132.029 76.5 132.286 76.5 132.69V132.923C76.5 133.297 76.4387 133.553 76.316 133.693C76.1934 133.818 75.9404 133.919 75.5572 133.997C75.5112 134.012 75.4039 134.02 75.2352 134.02C74.2694 134.02 73.5182 133.732 72.9816 133.157C72.4451 132.566 72.1768 131.702 72.1768 130.567Z" fill="white"/>
</g>
<defs>
<filter id="filter0_d_2347_121539" x="10" y="7" width="95" height="138.5" filterUnits="userSpaceOnUse" color-interpolation-filters="sRGB">
<feFlood flood-opacity="0" result="BackgroundImageFix"/>
<feColorMatrix in="SourceAlpha" type="matrix" values="0 0 0 0 0 0 0 0 0 0 0 0 0 0 0 0 0 0 127 0" result="hardAlpha"/>
<feMorphology radius="2" operator="erode" in="SourceAlpha" result="effect1_dropShadow_2347_121539"/>
<feOffset dx="2" dy="3"/>
<feGaussianBlur stdDeviation="3"/>
<feColorMatrix type="matrix" values="0 0 0 0 0.377045 0 0 0 0 0.423434 0 0 0 0 0.485286 0 0 0 0.1 0"/>
<feBlend mode="normal" in2="BackgroundImageFix" result="effect1_dropShadow_2347_121539"/>
<feBlend mode="normal" in="SourceGraphic" in2="effect1_dropShadow_2347_121539" result="shape"/>
</filter>
<filter id="filter1_d_2347_121539" x="0.5" y="0" width="110" height="94" filterUnits="userSpaceOnUse" color-interpolation-filters="sRGB">
<feFlood flood-opacity="0" result="BackgroundImageFix"/>
<feColorMatrix in="SourceAlpha" type="matrix" values="0 0 0 0 0 0 0 0 0 0 0 0 0 0 0 0 0 0 127 0" result="hardAlpha"/>
<feOffset dy="4"/>
<feGaussianBlur stdDeviation="6"/>
<feComposite in2="hardAlpha" operator="out"/>
<feColorMatrix type="matrix" values="0 0 0 0 0.1875 0 0 0 0 0.1875 0 0 0 0 0.1875 0 0 0 0.1 0"/>
<feBlend mode="normal" in2="BackgroundImageFix" result="effect1_dropShadow_2347_121539"/>
<feBlend mode="normal" in="SourceGraphic" in2="effect1_dropShadow_2347_121539" result="shape"/>
</filter>
<linearGradient id="paint0_linear_2347_121539" x1="41.7245" y1="80.3704" x2="81.8027" y2="34.4321" gradientUnits="userSpaceOnUse">
<stop offset="0.158705" stop-color="#024BC0"/>
<stop offset="0.977621" stop-color="#3597F9"/>
</linearGradient>
<linearGradient id="paint1_linear_2347_121539" x1="6.71428" y1="86.4259" x2="92.5726" y2="38.7339" gradientUnits="userSpaceOnUse">
<stop offset="0.158705" stop-color="#024BC0"/>
<stop offset="0.977621" stop-color="#3597F9"/>
</linearGradient>
</defs>
</svg>
