<svg width="81" height="28" viewBox="0 0 81 28" fill="none" xmlns="http://www.w3.org/2000/svg">
<g filter="url(#filter0_d_3430_47020)">
<path d="M22.1902 14C18.4576 14 15.2201 14.8365 13.2281 16.0212C13.173 16.0542 13.0515 16.1172 13 16.1538C13.5952 15.8531 14.3049 15.625 14.969 15.5371H14.9725C15.2168 15.5039 15.4644 15.4893 15.7122 15.4893C15.829 15.4893 15.9426 15.493 16.0561 15.5003C17.3291 15.5774 18.54 16.0725 19.5275 16.8978C19.5343 16.9015 19.5412 16.9052 19.5481 16.9126C19.5585 16.9199 19.5619 16.9273 19.5688 16.9345C20.0505 17.3418 20.4771 17.8332 20.8314 18.3908L20.9312 18.5485L20.9414 18.5669H20.945L23.2913 22.2754C24.4265 24.0691 26.7042 24.5387 28.383 23.3282C29.436 22.5725 30 21.34 30 20.0855C30 19.3336 29.7973 18.5706 29.3704 17.8993C27.8292 15.46 25.2489 14 22.4932 14H22.1902Z" fill="url(#paint0_linear_3430_47020)"/>
<path d="M12.3182 1.68498L4.12865 14.2088L3.17533 15.667L2.77872 16.274L1.63434 18.0267C1.45332 18.3032 1.31406 18.5977 1.2097 18.8994C0.987022 19.5458 0.945474 20.2319 1.06706 20.8855C1.21319 21.6865 1.60643 22.4371 2.22223 23.0118C2.35102 23.1303 2.48646 23.2416 2.63259 23.3422C4.3305 24.5275 6.63691 24.0677 7.78499 22.3114C7.78499 22.3114 9.68115 19.0789 10.5194 18.1343C10.5682 18.0769 10.6204 18.0195 10.676 17.9619C11.1908 17.3263 11.8207 16.8055 12.5198 16.4212C12.5931 16.3817 12.8817 16.2201 12.9374 16.1878C14.9518 15.0278 18.2256 14.2088 22 14.2088H13.0835L15.4494 10.592L18.4724 5.96964C18.9004 5.31251 19.1056 4.56904 19.1056 3.82916C19.1056 2.59732 18.535 1.39047 17.4706 0.650595C16.8512 0.219641 16.1485 0.00776863 15.4494 0.000562668C15.428 0.000112534 15.4069 -1.90735e-06 15.3856 -1.90735e-06C14.2001 -1.90735e-06 13.0324 0.591269 12.3182 1.68498Z" fill="url(#paint1_linear_3430_47020)"/>
</g>
<path d="M45.6591 6.02532V9.29958C45.6591 10.2335 45.3461 10.9198 44.7201 11.3587C44.0942 11.7862 43.0999 12 41.7375 12C39.2458 12 38 11.1336 38 9.40084C38 8.52321 38.3069 7.88186 38.9206 7.47679C39.5466 7.06048 40.4917 6.85232 41.7559 6.85232H43.7812V6.02532C43.7812 5.55274 43.6093 5.22082 43.2656 5.02954C42.9342 4.83826 42.3819 4.74262 41.6086 4.74262C40.8722 4.74262 40.2278 4.79325 39.6754 4.89452C39.4054 4.93952 39.2213 4.92827 39.1231 4.86076C39.0372 4.782 38.9942 4.61322 38.9942 4.35443V4.11814C38.9942 3.8706 39.0372 3.70183 39.1231 3.61181C39.2213 3.51055 39.3993 3.43741 39.657 3.39241C40.3076 3.30239 40.9213 3.25738 41.4982 3.25738C42.8974 3.25738 43.9407 3.47679 44.6281 3.91561C45.3154 4.35443 45.6591 5.05767 45.6591 6.02532ZM43.7812 9.21519V8.16878H41.7559C41.1177 8.16878 40.6451 8.26442 40.3382 8.4557C40.0437 8.63572 39.8964 8.93952 39.8964 9.36709C39.8964 9.7834 40.0437 10.0816 40.3382 10.2616C40.6328 10.4416 41.087 10.5316 41.7007 10.5316C42.4494 10.5316 42.9833 10.436 43.3025 10.2447C43.6216 10.0534 43.7812 9.71027 43.7812 9.21519Z" fill="white"/>
<path d="M47.4309 9.45148V0.759494C47.4309 0.455696 47.4862 0.253165 47.5966 0.151899C47.7071 0.0506329 47.928 0 48.2594 0H48.4988C48.8302 0 49.0511 0.0506329 49.1616 0.151899C49.2721 0.253165 49.3273 0.455696 49.3273 0.759494V9.11392C49.3273 9.55274 49.3948 9.86217 49.5298 10.0422C49.6648 10.2222 49.8858 10.3122 50.1926 10.3122C50.4995 10.3122 50.6897 10.3516 50.7634 10.4304C50.8493 10.5091 50.8923 10.6948 50.8923 10.9873V11.1561C50.8923 11.4262 50.8432 11.6118 50.745 11.7131C50.6468 11.8031 50.4443 11.8762 50.1374 11.9325C50.1006 11.9437 50.0147 11.9494 49.8796 11.9494C49.1064 11.9494 48.5049 11.7412 48.0753 11.3249C47.6457 10.8973 47.4309 10.2729 47.4309 9.45148Z" fill="white"/>
<path d="M52.0505 9.45148V0.759494C52.0505 0.455696 52.1057 0.253165 52.2162 0.151899C52.3266 0.0506329 52.5476 0 52.879 0H53.1183C53.4497 0 53.6706 0.0506329 53.7811 0.151899C53.8916 0.253165 53.9468 0.455696 53.9468 0.759494V9.11392C53.9468 9.55274 54.0143 9.86217 54.1493 10.0422C54.2844 10.2222 54.5053 10.3122 54.8122 10.3122C55.119 10.3122 55.3093 10.3516 55.3829 10.4304C55.4688 10.5091 55.5118 10.6948 55.5118 10.9873V11.1561C55.5118 11.4262 55.4627 11.6118 55.3645 11.7131C55.2663 11.8031 55.0638 11.8762 54.7569 11.9325C54.7201 11.9437 54.6342 11.9494 54.4992 11.9494C53.7259 11.9494 53.1244 11.7412 52.6948 11.3249C52.2653 10.8973 52.0505 10.2729 52.0505 9.45148Z" fill="white"/>
<path d="M56.7068 8.38819V0.759494C56.7068 0.455696 56.762 0.253165 56.8725 0.151899C56.983 0.0506329 57.2039 0 57.5353 0H57.7562C58.0876 0 58.3086 0.0506329 58.4191 0.151899C58.5295 0.253165 58.5848 0.455696 58.5848 0.759494V4.35443C59.088 3.62307 59.9902 3.25738 61.2912 3.25738C63.8443 3.25738 65.1208 4.48383 65.1208 6.93671V8.38819C65.1208 10.7961 63.7154 12 60.9046 12C59.5544 12 58.5172 11.6962 57.7931 11.0886C57.0689 10.4698 56.7068 9.56962 56.7068 8.38819ZM63.2244 8.35443V6.90295C63.2244 6.16034 63.0526 5.63713 62.7089 5.33333C62.3775 5.02954 61.7822 4.87764 60.923 4.87764C60.0515 4.87764 59.444 5.02954 59.1003 5.33333C58.7566 5.63713 58.5848 6.16034 58.5848 6.90295V8.35443C58.5848 9.0858 58.7566 9.60338 59.1003 9.90717C59.444 10.211 60.0515 10.3629 60.923 10.3629C61.7945 10.3629 62.3959 10.2166 62.7273 9.92405C63.0587 9.62025 63.2244 9.09705 63.2244 8.35443Z" fill="white"/>
<path d="M66.1264 4.47257V4.3038C66.1264 4.06751 66.1693 3.90436 66.2552 3.81435C66.3412 3.72433 66.5069 3.65682 66.7523 3.61181L67.7281 3.44304L67.9491 1.85654C67.9859 1.609 68.0534 1.44585 68.1516 1.36709C68.2498 1.28833 68.4339 1.24895 68.704 1.24895H68.9433C69.2133 1.24895 69.3913 1.28833 69.4772 1.36709C69.5632 1.44585 69.6061 1.609 69.6061 1.85654V3.44304H72.1837C72.4906 3.44304 72.6931 3.48804 72.7913 3.57806C72.9017 3.66807 72.957 3.85935 72.957 4.1519V4.35443C72.957 4.64698 72.9017 4.83826 72.7913 4.92827C72.6931 5.01828 72.4906 5.06329 72.1837 5.06329H69.6061V8.89452C69.6061 9.87342 70.0848 10.3629 71.0422 10.3629C71.5945 10.3629 72.0916 10.3122 72.5335 10.211C72.8404 10.1547 73.0429 10.166 73.1411 10.2447C73.2393 10.3235 73.2884 10.5091 73.2884 10.8017V11.0042C73.2884 11.2855 73.2393 11.4824 73.1411 11.5949C73.0429 11.7075 72.8404 11.7918 72.5335 11.8481C71.9689 11.9381 71.4718 11.9831 71.0422 11.9831C68.8328 11.9831 67.7281 10.948 67.7281 8.87764V5.06329H66.7708C66.513 5.06329 66.3412 5.02391 66.2552 4.94515C66.1693 4.86639 66.1264 4.70886 66.1264 4.47257Z" fill="white"/>
<path d="M74.4087 8.4557V6.80169C74.4087 5.66526 74.7708 4.79325 75.495 4.18565C76.2315 3.56681 77.287 3.25738 78.6618 3.25738C79.165 3.25738 79.6437 3.31364 80.0978 3.42616C80.4047 3.49367 80.6011 3.58368 80.687 3.6962C80.7852 3.79747 80.8343 3.98875 80.8343 4.27004V4.48945C80.8343 4.782 80.7791 4.96765 80.6686 5.04641C80.5581 5.12518 80.3556 5.12518 80.061 5.04641C79.7296 4.9339 79.2755 4.87764 78.6986 4.87764C77.8148 4.87764 77.195 5.02391 76.839 5.31646C76.4831 5.609 76.3051 6.1097 76.3051 6.81857V8.40506C76.3051 9.13643 76.4892 9.64838 76.8574 9.94093C77.2379 10.2222 77.8946 10.3629 78.8275 10.3629C79.1834 10.3629 79.656 10.3122 80.2451 10.211C80.5397 10.1547 80.7361 10.166 80.8343 10.2447C80.9448 10.3235 81 10.5035 81 10.7848V10.9873C81 11.2574 80.9448 11.4487 80.8343 11.5612C80.7361 11.6737 80.5336 11.7637 80.2267 11.8312C79.748 11.9437 79.2509 12 78.7354 12C75.851 12 74.4087 10.8186 74.4087 8.4557Z" fill="white"/>
<path d="M38 23.5V18.5111C38 17.7333 38.2223 17.1444 38.6669 16.7444C39.1191 16.3444 39.7707 16.1444 40.6215 16.1444C41.5107 16.1444 42.1699 16.337 42.5992 16.7222C43.0361 17.1074 43.2546 17.7037 43.2546 18.5111V19.4778C43.2546 21.0926 42.4574 21.9 40.863 21.9C40.0505 21.9 39.4871 21.6593 39.1728 21.1778V23.5C39.1728 23.7 39.1383 23.8333 39.0693 23.9C39.0003 23.9667 38.8623 24 38.6554 24H38.5174C38.3104 24 38.1725 23.9667 38.1035 23.9C38.0345 23.8333 38 23.7 38 23.5ZM42.0703 19.5V18.5444C42.0703 18.0556 41.9668 17.7111 41.7598 17.5111C41.5529 17.3111 41.1773 17.2111 40.633 17.2111C40.0888 17.2111 39.7094 17.3111 39.4947 17.5111C39.2801 17.7111 39.1728 18.0556 39.1728 18.5444V19.5C39.1728 19.9815 39.2801 20.3222 39.4947 20.5222C39.7094 20.7222 40.0888 20.8222 40.633 20.8222C41.1773 20.8222 41.5529 20.7259 41.7598 20.5333C41.9668 20.3333 42.0703 19.9889 42.0703 19.5Z" fill="white"/>
<path d="M48.3093 19.5V18.5444C48.3093 18.0556 48.2019 17.7111 47.9873 17.5111C47.7803 17.3111 47.4086 17.2111 46.872 17.2111C46.3278 17.2111 45.9483 17.3111 45.7337 17.5111C45.5191 17.7111 45.4118 18.0556 45.4118 18.5444V19.5C45.4118 19.9815 45.5191 20.3222 45.7337 20.5222C45.9483 20.7222 46.3278 20.8222 46.872 20.8222C47.4162 20.8222 47.7918 20.7259 47.9988 20.5333C48.2058 20.3333 48.3093 19.9889 48.3093 19.5ZM46.872 21.9C45.9675 21.9 45.3006 21.7037 44.8714 21.3111C44.4421 20.9185 44.2275 20.3148 44.2275 19.5V18.5444C44.2275 16.9444 45.109 16.1444 46.872 16.1444C47.7688 16.1444 48.4281 16.3444 48.8497 16.7444C49.2789 17.137 49.4935 17.737 49.4935 18.5444V19.5C49.4935 20.2852 49.2712 20.8815 48.8267 21.2889C48.3897 21.6963 47.7382 21.9 46.872 21.9Z" fill="white"/>
<path d="M54.5515 19.5V18.5444C54.5515 18.0556 54.4442 17.7111 54.2295 17.5111C54.0226 17.3111 53.6508 17.2111 53.1142 17.2111C52.57 17.2111 52.1906 17.3111 51.9759 17.5111C51.7613 17.7111 51.654 18.0556 51.654 18.5444V19.5C51.654 19.9815 51.7613 20.3222 51.9759 20.5222C52.1906 20.7222 52.57 20.8222 53.1142 20.8222C53.6585 20.8222 54.0341 20.7259 54.241 20.5333C54.448 20.3333 54.5515 19.9889 54.5515 19.5ZM53.1142 21.9C52.2097 21.9 51.5428 21.7037 51.1136 21.3111C50.6843 20.9185 50.4697 20.3148 50.4697 19.5V18.5444C50.4697 16.9444 51.3512 16.1444 53.1142 16.1444C54.0111 16.1444 54.6703 16.3444 55.0919 16.7444C55.5211 17.137 55.7358 17.737 55.7358 18.5444V19.5C55.7358 20.2852 55.5135 20.8815 55.0689 21.2889C54.632 21.6963 53.9804 21.9 53.1142 21.9Z" fill="white"/>
<path d="M56.8384 20.2222V14.5C56.8384 14.3 56.8729 14.1667 56.9419 14.1C57.0109 14.0333 57.1488 14 57.3558 14H57.5053C57.7122 14 57.8502 14.0333 57.9192 14.1C57.9882 14.1667 58.0227 14.3 58.0227 14.5V20C58.0227 20.2889 58.0648 20.4926 58.1492 20.6111C58.2335 20.7296 58.3714 20.7889 58.5631 20.7889C58.7547 20.7889 58.8735 20.8148 58.9195 20.8667C58.9732 20.9185 59 21.0407 59 21.2333V21.3444C59 21.5222 58.9693 21.6444 58.908 21.7111C58.8467 21.7704 58.7202 21.8185 58.5286 21.8556C58.5056 21.863 58.4519 21.8667 58.3676 21.8667C57.8847 21.8667 57.5091 21.7296 57.2408 21.4556C56.9725 21.1741 56.8384 20.763 56.8384 20.2222Z" fill="white"/>
<defs>
<filter id="filter0_d_3430_47020" x="0" y="0" width="33" height="28" filterUnits="userSpaceOnUse" color-interpolation-filters="sRGB">
<feFlood flood-opacity="0" result="BackgroundImageFix"/>
<feColorMatrix in="SourceAlpha" type="matrix" values="0 0 0 0 0 0 0 0 0 0 0 0 0 0 0 0 0 0 127 0" result="hardAlpha"/>
<feMorphology radius="2" operator="erode" in="SourceAlpha" result="effect1_dropShadow_3430_47020"/>
<feOffset dx="1" dy="2"/>
<feGaussianBlur stdDeviation="2"/>
<feColorMatrix type="matrix" values="0 0 0 0 0.721497 0 0 0 0 0.761628 0 0 0 0 0.815137 0 0 0 0.1 0"/>
<feBlend mode="normal" in2="BackgroundImageFix" result="effect1_dropShadow_3430_47020"/>
<feBlend mode="normal" in="SourceGraphic" in2="effect1_dropShadow_3430_47020" result="shape"/>
</filter>
<linearGradient id="paint0_linear_3430_47020" x1="8.6177" y1="13.493" x2="30.7373" y2="20.1258" gradientUnits="userSpaceOnUse">
<stop stop-color="#000034"/>
<stop offset="0.262356" stop-color="#000034"/>
<stop offset="0.27221" stop-color="#000034"/>
<stop offset="1" stop-color="#3F7BDD"/>
</linearGradient>
<linearGradient id="paint1_linear_3430_47020" x1="18.2794" y1="6.2532" x2="7.21601" y2="21.9461" gradientUnits="userSpaceOnUse">
<stop stop-color="#3F7BDD"/>
<stop offset="0.568518" stop-color="#3F65B3"/>
<stop offset="1" stop-color="#3F65B3"/>
</linearGradient>
</defs>
</svg>
