<svg width="123" height="124" viewBox="0 0 123 124" fill="none" xmlns="http://www.w3.org/2000/svg">
    <g opacity="0.8">
        <mask id="path-1-inside-1_3097_109118" fill="white">
            <path d="M105.915 102.812C115.867 92.2409 121.722 78.4667 122.428 63.9652C123.134 49.4638 118.644 35.1861 109.766 23.6984C100.888 12.2106 88.2032 4.26615 73.9923 1.29286C59.7814 -1.68043 44.976 0.512428 32.237 7.47731C19.4981 14.4422 9.66104 25.7223 4.49393 39.2904C-0.673177 52.8584 -0.831503 67.8245 4.04741 81.4988C8.92633 95.1731 18.5225 106.659 31.1113 113.892C43.7 121.124 58.4558 123.63 72.7264 120.958L72.165 117.96C58.608 120.499 44.59 118.118 32.6307 111.247C20.6714 104.376 11.555 93.4644 6.92004 80.4738C2.28507 67.4833 2.43548 53.2655 7.34424 40.3758C12.253 27.4862 21.5982 16.7701 33.7002 10.1534C45.8022 3.53681 59.8673 1.45359 73.3677 4.27822C86.868 7.10285 98.9183 14.6501 107.353 25.5634C115.787 36.4768 120.052 50.0406 119.381 63.817C118.711 77.5934 113.149 90.6789 103.695 100.722L105.915 102.812Z"/>
        </mask>
        <path d="M105.915 102.812C115.867 92.2409 121.722 78.4667 122.428 63.9652C123.134 49.4638 118.644 35.1861 109.766 23.6984C100.888 12.2106 88.2032 4.26615 73.9923 1.29286C59.7814 -1.68043 44.976 0.512428 32.237 7.47731C19.4981 14.4422 9.66104 25.7223 4.49393 39.2904C-0.673177 52.8584 -0.831503 67.8245 4.04741 81.4988C8.92633 95.1731 18.5225 106.659 31.1113 113.892C43.7 121.124 58.4558 123.63 72.7264 120.958L72.165 117.96C58.608 120.499 44.59 118.118 32.6307 111.247C20.6714 104.376 11.555 93.4644 6.92004 80.4738C2.28507 67.4833 2.43548 53.2655 7.34424 40.3758C12.253 27.4862 21.5982 16.7701 33.7002 10.1534C45.8022 3.53681 59.8673 1.45359 73.3677 4.27822C86.868 7.10285 98.9183 14.6501 107.353 25.5634C115.787 36.4768 120.052 50.0406 119.381 63.817C118.711 77.5934 113.149 90.6789 103.695 100.722L105.915 102.812Z" fill="#E8ECF3" stroke="url(#paint0_linear_3097_109118)" stroke-width="16" mask="url(#path-1-inside-1_3097_109118)"/>
    </g>
    <path d="M97.4998 75.5915C97.4998 78.4316 96.139 81.2171 93.5937 82.9285C89.5417 85.6655 84.044 84.6034 81.2982 80.5496L75.6365 72.1627H75.6304L75.6061 72.1202L75.3631 71.7621C74.5065 70.4998 73.4799 69.3893 72.3135 68.4668C72.2953 68.4486 72.2892 68.4365 72.2649 68.4183C72.2467 68.4001 72.2346 68.394 72.2163 68.3879C69.835 66.5188 66.9069 65.4022 63.8331 65.2262C63.5597 65.208 63.2863 65.2019 63.0008 65.2019C62.4055 65.2019 61.8041 65.2322 61.2148 65.3111H61.2087C59.605 65.5114 57.8919 66.0272 56.4521 66.7069C56.5736 66.622 56.8713 66.4824 57.005 66.4096C61.8162 63.7272 69.6284 61.8398 78.6435 61.8398H79.3725C86.0244 61.8398 92.2572 65.1412 95.975 70.6576C97.0077 72.1627 97.4998 73.8862 97.4998 75.5915Z" fill="url(#paint1_linear_3097_109118)"/>
    <path d="M78.6437 61.8206C69.6347 61.8206 61.8164 63.7141 57.0051 66.3904C56.8715 66.4632 56.185 66.8394 56.0089 66.9305C54.3383 67.8165 52.8378 69.0242 51.6046 70.4928C51.471 70.6263 51.3495 70.7598 51.228 70.8933C49.2294 73.078 44.6975 80.5425 44.6975 80.5425C41.9578 84.6024 36.4479 85.6645 32.396 82.9214C32.0498 82.6908 31.7217 82.4299 31.418 82.1568C29.9479 80.8277 29.0063 79.0921 28.66 77.2472C28.3684 75.7361 28.4717 74.1522 29.0002 72.6593C29.2493 71.9614 29.5834 71.2817 30.0147 70.6445L32.7484 66.5967L33.696 65.1948L35.9741 61.8267L55.529 32.8913C57.2664 30.3182 60.1215 28.9527 63.0071 29.0013C64.6777 29.0195 66.3543 29.505 67.8305 30.5002C70.3698 32.2116 71.7366 34.9971 71.7366 37.8433C71.7366 39.5547 71.2445 41.2721 70.224 42.7893L63.0071 53.4701L57.3575 61.8267H78.6437V61.8206Z" fill="url(#paint2_linear_3097_109118)"/>
    <path opacity="0.8" d="M79.853 120.957C79.7592 121.051 79.7065 121.178 79.7065 121.31C79.7065 121.443 79.7592 121.57 79.853 121.664L81.3545 123.165C81.5498 123.361 81.8664 123.361 82.0616 123.165L89.9665 115.261L97.8715 123.165C98.0667 123.361 98.3833 123.361 98.5785 123.165L100.08 121.664C100.174 121.57 100.227 121.443 100.227 121.31C100.227 121.178 100.174 121.051 100.08 120.957L92.1752 113.052L100.08 105.148C100.174 105.054 100.227 104.927 100.227 104.794C100.227 104.662 100.174 104.535 100.08 104.441L98.5785 102.939C98.3833 102.744 98.0667 102.744 97.8715 102.939L89.9665 110.844L82.0616 102.939C81.8664 102.744 81.5498 102.744 81.3545 102.939L79.853 104.441C79.7592 104.535 79.7065 104.662 79.7065 104.794C79.7065 104.927 79.7592 105.054 79.853 105.148L87.7579 113.052L79.853 120.957Z" fill="url(#paint3_linear_3097_109118)" stroke="url(#paint4_linear_3097_109118)" stroke-linejoin="round"/>
    <defs>
        <linearGradient id="paint0_linear_3097_109118" x1="0.5" y1="0" x2="155.454" y2="80.114" gradientUnits="userSpaceOnUse">
            <stop offset="0.158705" stop-color="#024BC0"/>
            <stop offset="0.977621" stop-color="#3597F9"/>
        </linearGradient>
        <linearGradient id="paint1_linear_3097_109118" x1="66.7141" y1="73.1436" x2="93.6339" y2="93.4742" gradientUnits="userSpaceOnUse">
            <stop offset="0.158705" stop-color="#1B3867"/>
            <stop offset="0.566881" stop-color="#1C70DC"/>
            <stop offset="0.977621" stop-color="#3565B5"/>
        </linearGradient>
        <linearGradient id="paint2_linear_3097_109118" x1="28.5" y1="29" x2="94.732" y2="59.9691" gradientUnits="userSpaceOnUse">
            <stop offset="0.158705" stop-color="#024BC0"/>
            <stop offset="0.977621" stop-color="#3597F9"/>
        </linearGradient>
        <linearGradient id="paint3_linear_3097_109118" x1="80.2065" y1="103.293" x2="104.999" y2="116.112" gradientUnits="userSpaceOnUse">
            <stop offset="0.1587" stop-color="#024BC0"/>
            <stop offset="0.9776" stop-color="#3597F9"/>
        </linearGradient>
        <linearGradient id="paint4_linear_3097_109118" x1="80.2065" y1="103.293" x2="104.999" y2="116.112" gradientUnits="userSpaceOnUse">
            <stop offset="0.1587" stop-color="#024BC0"/>
            <stop offset="0.9776" stop-color="#3597F9"/>
        </linearGradient>
    </defs>
</svg>
